# xmcd
#
# Track frame offsets:
#	183
#	17645
#	32980
#	48148
#	69458
#	87725
#	111243
#	130493
#	148068
#	164558
#	182415
#	197935
#	214410
#	236948
#	256613
#	273840
#
# Disc length: 3871 seconds
#
# Revision: 1
# Processed by: cddbd v1.5.2PL0 Copyright (c) Steve Scherf et al.
# Submitted via: EasyCDDAExtractor 11.1.0.1
#
DISCID=f30f1d10
DTITLE=Various Artist - Comin' Home To The Blues
DYEAR=1991
DGENRE=Blues
TTITLE0=Robert Cray - She's Into Something
TTITLE1=Roy Buchanan with Delbert McClinton - You Can't Judge A Book By The Co
TTITLE1=ver
TTITLE2=Katie Webster - Two Fisted Mama
TTITLE3=Charlie Musselwhite - The Blues Overtook Me
TTITLE4=Junior Wells And Carey Bell - Second Hand Man
TTITLE5=Rufus Thomas - That woman is Poison!
TTITLE6=Fenton Robinson - I Hear Some Blues Downstairs
TTITLE7=Lil' Ed And The Bluesimas - Packin' Up
TTITLE8=Hound Dog Taylor - Give Me Back My Wig
TTITLE9=Clarence 'Gatemouth' Brown - What Am I Living For
TTITLE10=Lonnie Brooks - Worked Up Woman
TTITLE11=William Clarke - Trying So Hard
TTITLE12=Albert Collins - The Moon Is Full
TTITLE13=Koko Taylor - Jump For Joy
TTITLE14=Professor Longhair - Whole Lotta Lovin'
TTITLE15=Little Charlie And The Nightcats - My Money's Green
EXTD=ID3G: 0
EXTT0=
EXTT1=
EXTT2=
EXTT3=
EXTT4=
EXTT5=
EXTT6=
EXTT7=
EXTT8=
EXTT9=
EXTT10=
EXTT11=
EXTT12=
EXTT13=
EXTT14=
EXTT15=
PLAYORDER=
